HIERARCHY
ROOT Hips
{
	OFFSET -0.001795 -0.223333 0.028219
	CHANNELS 6 Xposition Yposition Zposition Zrotation Yrotation Xrotation 
	JOINT LeftUpLeg
	{
		OFFSET 0.069520 -0.091406 -0.006815
		CHANNELS 3 Zrotation Yrotation Xrotation
		JOINT LeftLeg
		{
			OFFSET 0.034277 -0.375199 -0.004496
			CHANNELS 3 Zrotation Yrotation Xrotation
			JOINT LeftFoot
			{
				OFFSET -0.013596 -0.397961 -0.043693
				CHANNELS 3 Zrotation Yrotation Xrotation
				JOINT LeftToe
				{
					OFFSET 0.026358 -0.055791 0.119288
					CHANNELS 3 Zrotation Yrotation Xrotation
					End Site
					{
						OFFSET 0.000000 0.000000 0.000000
					}
				}
			}
		}
	}
	JOINT RightUpLeg
	{
		OFFSET -0.067670 -0.090522 -0.004320
		CHANNELS 3 Zrotation Yrotation Xrotation
		JOINT RightLeg
		{
			OFFSET -0.038290 -0.382569 -0.008850
			CHANNELS 3 Zrotation Yrotation Xrotation
			JOINT RightFoot
			{
				OFFSET 0.015774 -0.398415 -0.042312
				CHANNELS 3 Zrotation Yrotation Xrotation
				JOINT RightToe
				{
					OFFSET -0.025372 -0.048144 0.123348
					CHANNELS 3 Zrotation Yrotation Xrotation
					End Site
					{
						OFFSET 0.000000 0.000000 0.000000
					}
				}
			}
		}
	}
	JOINT Spine
	{
		OFFSET -0.002533 0.108963 -0.026696
		CHANNELS 3 Zrotation Yrotation Xrotation
		JOINT Spine1
		{
			OFFSET 0.005487 0.135180 0.001092
			CHANNELS 3 Zrotation Yrotation Xrotation
			JOINT Spine2
			{
				OFFSET 0.001457 0.052922 0.025425
				CHANNELS 3 Zrotation Yrotation Xrotation
				JOINT Neck
				{
					OFFSET -0.002778 0.213870 -0.042857
					CHANNELS 3 Zrotation Yrotation Xrotation
					JOINT Head
					{
						OFFSET 0.005152 0.064970 0.051349
						CHANNELS 3 Zrotation Yrotation Xrotation
						End Site
						{
							OFFSET 0.000000 0.000000 0.000000
						}
					}
				}
				JOINT LeftShoulder
				{
					OFFSET 0.078845 0.121749 -0.034090
					CHANNELS 3 Zrotation Yrotation Xrotation
					JOINT LeftArm
					{
						OFFSET 0.090977 0.030469 -0.008868
						CHANNELS 3 Zrotation Yrotation Xrotation
						JOINT LeftForeArm
						{
							OFFSET 0.259612 -0.012772 -0.027456
							CHANNELS 3 Zrotation Yrotation Xrotation
							JOINT LeftHand
							{
								OFFSET 0.249234 0.008986 -0.001171
								CHANNELS 3 Zrotation Yrotation Xrotation
								End Site
								{
									OFFSET 0.000000 0.000000 0.000000
								}
							}
						}
					}
				}
				JOINT RightShoulder
				{
					OFFSET -0.081759 0.118833 -0.038615
					CHANNELS 3 Zrotation Yrotation Xrotation
					JOINT RightArm
					{
						OFFSET -0.096012 0.032551 -0.009143
						CHANNELS 3 Zrotation Yrotation Xrotation
						JOINT RightForeArm
						{
							OFFSET -0.253742 -0.013329 -0.021401
							CHANNELS 3 Zrotation Yrotation Xrotation
							JOINT RightHand
							{
								OFFSET -0.255298 0.007772 -0.005559
								CHANNELS 3 Zrotation Yrotation Xrotation
								End Site
								{
									OFFSET 0.000000 0.000000 0.000000
								}
							}
						}
					}
				}
			}
		}
	}
}
MOTION
Frames: 7
Frame Time: 0.050000
0.000000 0.957655 0.000000 0.119917 -1.814849 8.335733 -0.858751 -0.365566 -3.940131 1.006674 0.126603 -5.471982 -0.895412 2.002603 9.416097 0.000000 0.000000 0.000000 0.787295 0.765698 -7.518520 -4.044954 0.604426 2.638759 0.180833 -3.331423 7.854425 0.000000 0.000000 0.000000 3.279722 0.132066 -3.577572 -1.458134 0.794280 -13.647430 -2.701386 1.627338 10.204646 2.235682 -0.329399 -14.335626 0.000000 0.000000 0.000000 17.255271 8.857416 -0.248392 -10.630005 -18.167228 -0.625464 10.186720 11.820784 0.680431 0.000000 0.000000 0.000000 -18.698921 -14.466162 -1.400195 15.076543 10.346609 -0.747476 -9.538395 -7.119429 0.623642 0.000000 0.000000 0.000000 
-0.000451 0.957320 0.001918 -0.362363 -2.124683 8.353693 -0.117684 -0.257587 -2.787495 0.757754 0.199236 -6.820134 -0.977661 1.247435 7.857554 0.000000 0.000000 0.000000 0.711870 0.607347 -6.070966 -4.177430 0.418368 0.068917 0.379866 -2.629864 7.130255 0.000000 0.000000 0.000000 4.610616 0.131876 -3.669149 -1.941594 0.936393 -12.292112 -3.337312 1.941320 7.240247 0.958563 0.565405 -14.660441 0.000000 0.000000 0.000000 17.974266 9.259134 -0.002081 -7.676289 -17.322459 -0.685918 5.015759 10.017552 0.100493 0.000000 0.000000 0.000000 -20.156316 -15.665359 -1.210152 13.949717 11.137192 -0.590810 -7.037972 -5.314235 0.346167 0.000000 0.000000 0.000000 
-0.000732 0.957026 0.003057 -0.205100 -3.541642 7.685035 -0.083365 -0.193508 -2.055645 0.906536 0.123052 -5.290893 -0.798957 1.242980 7.300610 0.000000 0.000000 0.000000 0.004220 0.594048 -5.997750 -2.875703 0.347256 1.048120 0.505078 -2.521848 7.187342 0.000000 0.000000 0.000000 4.724331 0.069224 -2.742436 -1.998798 0.934866 -14.047507 -3.694313 4.307812 8.902746 1.898058 0.160259 -14.953447 0.000000 0.000000 0.000000 19.820820 10.739361 0.286428 -7.956604 -19.967653 -0.702985 4.311558 11.426686 0.018040 0.000000 0.000000 0.000000 -20.253781 -16.885531 -1.810717 14.246914 12.173920 -0.560463 -8.114837 -5.547055 0.460789 0.000000 0.000000 0.000000 
-0.001087 0.956506 0.003622 -0.090436 -3.539532 7.824005 -0.222288 -0.184993 -1.978231 0.675914 0.146008 -5.472943 -1.319907 -0.002493 6.562525 0.000000 0.000000 0.000000 -0.338019 0.602826 -6.093590 -2.589506 0.294230 0.697473 1.000281 -1.567168 7.418084 0.000000 0.000000 0.000000 4.650392 0.090699 -3.011586 -2.047650 0.946056 -12.769518 -3.557238 3.677253 7.725476 0.633407 0.842334 -14.350192 0.000000 0.000000 0.000000 19.845987 10.587713 0.261046 -6.374555 -18.734031 -0.755825 2.500931 10.771844 -0.150045 0.000000 0.000000 0.000000 -20.462670 -16.212372 -1.467736 12.067671 13.190708 -0.509681 -5.581455 -6.883211 0.282419 0.000000 0.000000 0.000000 
-0.001504 0.956597 0.003615 0.280460 -3.331236 7.553725 -0.534013 -0.135089 -1.495415 0.935269 0.132180 -5.532208 -1.600893 -0.710761 6.071217 0.000000 0.000000 0.000000 -0.539016 0.587631 -5.946680 -2.673156 0.320785 0.956542 0.540226 -2.293312 6.905135 0.000000 0.000000 0.000000 4.188540 0.066361 -2.632453 -1.921840 0.908834 -12.734181 -3.628412 3.710790 7.406283 0.176612 1.132913 -14.137130 0.000000 0.000000 0.000000 20.674537 10.072684 0.550878 -6.091546 -18.683530 -0.765348 2.557612 10.634613 -0.144408 0.000000 0.000000 0.000000 -21.144636 -15.716879 -1.280747 12.505072 12.667757 -0.517047 -5.714774 -6.440305 0.286779 0.000000 0.000000 0.000000 
-0.001771 0.956502 0.003080 0.569013 -3.328005 7.379537 -0.788463 -0.116230 -1.337509 1.131123 0.120578 -5.550181 -1.874760 -1.257770 6.004100 0.000000 0.000000 0.000000 -0.850107 0.557005 -5.635236 -2.720680 0.311661 0.734797 0.420338 -2.584789 6.983325 0.000000 0.000000 0.000000 4.033264 0.059235 -2.493170 -1.943373 0.915576 -12.420147 -3.756758 3.616406 7.184487 0.374775 0.975880 -13.798412 0.000000 0.000000 0.000000 20.965737 10.413671 0.554513 -5.515726 -18.767360 -0.791084 2.496301 10.041129 -0.139952 0.000000 0.000000 0.000000 -21.238041 -15.406003 -1.189381 12.699319 13.217520 -0.472429 -5.849486 -5.637674 0.279172 0.000000 0.000000 0.000000 
-0.001962 0.956235 0.001888 0.631891 -3.445989 7.077347 -0.790174 -0.102486 -1.190277 1.127052 0.131251 -5.778771 -1.777110 -0.974554 6.257966 0.000000 0.000000 0.000000 -1.058095 0.530055 -5.352621 -2.736133 0.292550 0.417512 0.583803 -2.334595 7.178681 0.000000 0.000000 0.000000 3.922696 0.021314 -1.930456 -1.889693 0.895780 -12.749445 -3.730735 4.054337 7.354085 0.737545 0.824891 -14.294619 0.000000 0.000000 0.000000 21.095615 10.008470 0.704818 -4.948876 -18.476802 -0.822743 2.421257 9.702742 -0.143550 0.000000 0.000000 0.000000 -20.443764 -15.264183 -1.410344 12.823096 13.399657 -0.466120 -6.092297 -4.682733 0.277605 0.000000 0.000000 0.000000 
